<svg xmlns="http://www.w3.org/2000/svg" width="325.998" height="30.002" viewBox="0 0 325.998 30.002">
  <g id="scheduleTray" transform="translate(-25 -620.996)">
    <path id="빼기_1" data-name="빼기 1" d="M11898.75,22386h-325.74a15,15,0,0,0-.01-30h326a15,15,0,0,0-.248,30Z" transform="translate(-11548 -21735)" opacity="0.88"/>
    <g id="그룹_166" data-name="그룹 166" transform="translate(2)" opacity="0.5">
      <rect id="사각형_628" data-name="사각형 628" width="10" height="1" transform="translate(46 635)" fill="#ecf2cb"/>
      <rect id="사각형_637" data-name="사각형 637" width="10" height="1" transform="translate(136 635)" fill="#ecf2cb"/>
      <rect id="사각형_642" data-name="사각형 642" width="10" height="1" transform="translate(226 635)" fill="#ecf2cb"/>
      <rect id="사각형_629" data-name="사각형 629" width="10" height="1" transform="translate(64 635)" fill="#ecf2cb"/>
      <rect id="사각형_636" data-name="사각형 636" width="10" height="1" transform="translate(154 635)" fill="#ecf2cb"/>
      <rect id="사각형_641" data-name="사각형 641" width="10" height="1" transform="translate(244 635)" fill="#ecf2cb"/>
      <rect id="사각형_632" data-name="사각형 632" width="10" height="1" transform="translate(100 635)" fill="#ecf2cb"/>
      <rect id="사각형_635" data-name="사각형 635" width="10" height="1" transform="translate(190 635)" fill="#ecf2cb"/>
      <rect id="사각형_640" data-name="사각형 640" width="10" height="1" transform="translate(280 635)" fill="#ecf2cb"/>
      <rect id="사각형_630" data-name="사각형 630" width="10" height="1" transform="translate(82 635)" fill="#ecf2cb"/>
      <rect id="사각형_634" data-name="사각형 634" width="10" height="1" transform="translate(172 635)" fill="#ecf2cb"/>
      <rect id="사각형_639" data-name="사각형 639" width="10" height="1" transform="translate(262 635)" fill="#ecf2cb"/>
      <rect id="사각형_631" data-name="사각형 631" width="10" height="1" transform="translate(118 635)" fill="#ecf2cb"/>
      <rect id="사각형_633" data-name="사각형 633" width="10" height="1" transform="translate(208 635)" fill="#ecf2cb"/>
      <rect id="사각형_638" data-name="사각형 638" width="10" height="1" transform="translate(298 635)" fill="#ecf2cb"/>
      <rect id="사각형_643" data-name="사각형 643" width="10" height="1" transform="translate(316 635)" fill="#ecf2cb"/>
    </g>
  </g>
</svg>
