<svg xmlns="http://www.w3.org/2000/svg" xmlns:xlink="http://www.w3.org/1999/xlink" width="113.492" height="40.862" viewBox="0 0 113.492 40.862">
  <defs>
    <clipPath id="clip-path">
      <rect id="사각형_659" data-name="사각형 659" width="113.492" height="40.862" transform="translate(0 0)" fill="none"/>
    </clipPath>
  </defs>
  <g id="그룹_173" data-name="그룹 173" transform="translate(0 0)">
    <path id="패스_151" data-name="패스 151" d="M61.862.16V17.214H42.027V.16H36.36V38.824h5.667V22.193H61.862V38.824h5.667V.16Z" fill="#6ebc08"/>
    <g id="그룹_172" data-name="그룹 172">
      <g id="그룹_171" data-name="그룹 171" clip-path="url(#clip-path)">
        <path id="패스_152" data-name="패스 152" d="M29.185,38.824,24.2,26.324h-13.2l-4.987,12.5H0L15.868.16H19.5L35.476,38.824ZM17.908,10.541a4.719,4.719,0,0,1-.34-1.006l-.284.953L12.977,21.346h9.238Z" fill="#6ebc08"/>
        <path id="패스_153" data-name="패스 153" d="M106.774,15.029a2.433,2.433,0,0,0-2.312-2.426V12.6h-.05c-.026,0-.05-.008-.077-.008s-.081.011-.123.013a34.56,34.56,0,0,0-4.045.332c-.216-.946-.393-1.792-.605-2.633a19.248,19.248,0,0,0-2.837-6.633C94.6.674,91.156-.57,87.126.244a13.048,13.048,0,0,0-6.672,3.71,32.268,32.268,0,0,0-6.886,10.617A63.445,63.445,0,0,0,68.788,33a55.311,55.311,0,0,0-.1,5.9c1.742,0,5.292.019,5.275.019h.3s-.014-.619-.01-1.069a59.421,59.421,0,0,1,3.1-17.223A39.287,39.287,0,0,1,83.046,8.745a10.371,10.371,0,0,1,4.015-3.526c1.8-.818,3.527-.6,4.611.741,2.028,2.51,2.6,5.373,2.854,8.283-.566.217-1.032.338-1.4.479a20.758,20.758,0,0,0-9.486,7.347c-3.034,4.15-4.433,8.576-2.759,13.387a7.512,7.512,0,0,0,6.267,5.24,9.348,9.348,0,0,0,8.53-2.548,14.134,14.134,0,0,0,3.43-6.089c1.287-4.091,1.384-8.284,1.583-12.469.027-.558.083-1.116.13-1.743l3.637-.364v-.028a2.433,2.433,0,0,0,2.312-2.426m-11.979,9.05a27.623,27.623,0,0,1-1.768,8.353,8.361,8.361,0,0,1-1.564,2.549c-1.633,1.777-4.12,1.486-4.91-.64a8.562,8.562,0,0,1-.448-3.964c.553-4.42,3.172-7.861,7.641-10.314a5.171,5.171,0,0,1,.612-.268c.1-.038.217-.048.691-.147-.089,1.578-.153,3-.254,4.431" fill="#6ebc08"/>
        <path id="패스_154" data-name="패스 154" d="M108.274,15.029a2.609,2.609,0,1,0,2.609-2.609,2.609,2.609,0,0,0-2.609,2.609" fill="#ff9312"/>
      </g>
    </g>
  </g>
</svg>
