<svg xmlns="http://www.w3.org/2000/svg" xmlns:xlink="http://www.w3.org/1999/xlink" width="402" height="371" viewBox="0 0 402 371">
  <defs>
    <clipPath id="clip-path">
      <rect id="사각형_626" data-name="사각형 626" width="87.994" height="94.336" fill="#ff9312"/>
    </clipPath>
  </defs>
  <g id="그룹_176" data-name="그룹 176" transform="translate(-119 -228)">
    <text id="AMPEL_Helps" data-name="AMPEL
Helps" transform="translate(121 324)" fill="#ecf2cb" stroke="rgba(0,0,0,0)" stroke-miterlimit="10" stroke-width="1" font-size="132" font-family="HelveticaNeueLTStd-XBlkCn, Helvetica Neue LT Std"><tspan x="0" y="0">A</tspan><tspan y="0" fill="#fff">MPEL</tspan><tspan x="0" y="118">H</tspan><tspan y="118" fill="#fff">ELPS</tspan></text>
    <text id="iming" transform="translate(197 560)" fill="#fff" stroke="rgba(0,0,0,0)" stroke-miterlimit="10" stroke-width="1" font-size="132" font-family="HelveticaNeueLTStd-XBlkCn, Helvetica Neue LT Std"><tspan x="0" y="0">IMING</tspan></text>
    <g id="그룹_163" data-name="그룹 163" transform="translate(120 465.745)" clip-path="url(#clip-path)">
      <path id="패스_146" data-name="패스 146" d="M87.994,34.7a5.617,5.617,0,0,0-5.338-5.6v-.014l-.115,0c-.06,0-.118-.018-.178-.018-.1,0-.187.025-.284.03a79.292,79.292,0,0,0-9.338.766c-.5-2.184-.907-4.137-1.4-6.079A44.437,44.437,0,0,0,64.795,8.47C59.877,1.556,51.938-1.316,42.634.563a30.122,30.122,0,0,0-15.4,8.565c-7.369,7.238-12.095,15.687-15.9,24.511A146.473,146.473,0,0,0,.3,76.192,127.693,127.693,0,0,0,.063,89.82c4.022,0,12.217.044,12.178.044h.7s-.032-1.429-.023-2.468c.182-13.529,3.013-26.734,7.157-39.762,3.047-9.579,6.81-18.949,13.138-27.445,2.4-3.227,5.132-6.256,9.269-8.14s8.143-1.383,10.645,1.711c4.682,5.795,6.009,12.4,6.589,19.122-1.307.5-2.383.78-3.223,1.106A47.924,47.924,0,0,0,34.6,50.949c-7,9.581-10.234,19.8-6.37,30.906,2.133,6.132,6.529,10.774,14.468,12.1,7.868,1.311,14.512-.755,19.693-5.882,4.139-4.093,6.314-8.962,7.919-14.057,2.971-9.445,3.2-19.125,3.655-28.786.062-1.288.192-2.576.3-4.024,3.013-.3,5.612-.563,8.4-.84V40.3a5.617,5.617,0,0,0,5.338-5.6M60.339,55.59a63.773,63.773,0,0,1-4.082,19.284,19.348,19.348,0,0,1-3.611,5.885c-3.77,4.1-9.512,3.431-11.335-1.478a19.766,19.766,0,0,1-1.034-9.151c1.277-10.2,7.323-18.148,17.64-23.811A11.935,11.935,0,0,1,59.33,45.7c.231-.088.5-.111,1.6-.339C60.72,49,60.572,52.3,60.339,55.59" transform="translate(-0.001 0)" fill="#ff9312"/>
    </g>
  </g>
</svg>
